<svg xmlns="http://www.w3.org/2000/svg" viewBox="0 0 512 512">
  <defs>
    <radialGradient id="g1" cx="20%" cy="15%" r="90%">
      <stop offset="0" stop-color="#ffd6a5" />
      <stop offset="0.35" stop-color="#ff4d8d" />
      <stop offset="0.7" stop-color="#7c3aed" />
      <stop offset="1" stop-color="#2563eb" />
    </radialGradient>
    <linearGradient id="gloss" x1="0" y1="0" x2="1" y2="1">
      <stop offset="0" stop-color="#ffffff" stop-opacity="0.22" />
      <stop offset="0.45" stop-color="#ffffff" stop-opacity="0.08" />
      <stop offset="1" stop-color="#ffffff" stop-opacity="0" />
    </linearGradient>
  </defs>

  <rect width="512" height="512" rx="120" fill="url(#g1)" />
  <path
    d="M54 94c44-50 134-66 208-44c56 16 102 62 124 110c20 44 16 98-6 146c-30 66-96 116-170 132c-86 18-166-18-202-82c-34-62-18-162 46-262z"
    fill="url(#gloss)"
  />

  <path
    d="M106 374 L192 288 L256 330 L406 140"
    fill="none"
    stroke="#ffffff"
    stroke-width="38"
    stroke-linecap="round"
    stroke-linejoin="round"
  />
  <path
    d="M406 140 L406 214 M406 140 L332 140"
    fill="none"
    stroke="#ffffff"
    stroke-width="38"
    stroke-linecap="round"
  />
</svg>
