<svg xmlns="http://www.w3.org/2000/svg" viewBox="0 0 192 192">
  <defs>
    <radialGradient id="g1" cx="20%" cy="15%" r="90%">
      <stop offset="0" stop-color="#ffd6a5" />
      <stop offset="0.35" stop-color="#ff4d8d" />
      <stop offset="0.7" stop-color="#7c3aed" />
      <stop offset="1" stop-color="#2563eb" />
    </radialGradient>
    <linearGradient id="gloss" x1="0" y1="0" x2="1" y2="1">
      <stop offset="0" stop-color="#ffffff" stop-opacity="0.22" />
      <stop offset="0.45" stop-color="#ffffff" stop-opacity="0.08" />
      <stop offset="1" stop-color="#ffffff" stop-opacity="0" />
    </linearGradient>
  </defs>

  <rect width="192" height="192" rx="44" fill="url(#g1)" />
  <path
    d="M20 34c16-18 48-24 74-16c20 6 36 22 44 38c7 15 6 33-2 50c-10 22-33 39-60 44c-30 6-58-6-70-28c-12-22-6-58 14-88z"
    fill="url(#gloss)"
  />

  <path
    d="M40 140 L72 108 L96 124 L152 52"
    fill="none"
    stroke="#ffffff"
    stroke-width="14"
    stroke-linecap="round"
    stroke-linejoin="round"
  />
  <path
    d="M152 52 L152 80 M152 52 L124 52"
    fill="none"
    stroke="#ffffff"
    stroke-width="14"
    stroke-linecap="round"
  />
</svg>
